<?xml version="1.0" standalone="no"?>
<!DOCTYPE svg PUBLIC "-//W3C//DTD SVG 20010904//EN"
 "http://www.w3.org/TR/2001/REC-SVG-20010904/DTD/svg10.dtd">
<svg version="1.0" xmlns="http://www.w3.org/2000/svg"
 width="1024.000000pt" height="1024.000000pt" viewBox="0 0 1024.000000 1024.000000"
 preserveAspectRatio="xMidYMid meet">

<g transform="translate(0.000000,1024.000000) scale(0.100000,-0.100000)"
fill="#000000" stroke="none">
<path d="M2 10235 c2 -3 196 -7 429 -9 233 -2 442 -7 464 -10 49 -9 54 -9 140
2 39 5 72 6 75 2 8 -13 5 -301 -4 -357 -7 -43 -18 -61 -67 -116 -33 -36 -59
-73 -59 -82 0 -11 -6 -15 -17 -12 -10 3 -189 47 -398 98 -209 50 -383 96 -386
102 -4 5 -12 7 -17 3 -6 -4 -45 2 -87 13 l-75 19 0 -149 0 -149 93 -2 c50 -1
154 0 230 2 l137 3 0 -64 c0 -35 -7 -82 -14 -104 -13 -35 -13 -43 0 -62 33
-52 13 -159 -48 -245 -11 -16 -15 -28 -9 -28 16 0 13 -36 -4 -50 -8 -6 -23 -9
-34 -5 -14 4 -32 -2 -56 -21 l-36 -27 -118 36 c-65 21 -123 37 -130 37 -7 0
-11 -27 -11 -80 l0 -80 29 0 c16 0 41 -4 56 -10 23 -9 25 -8 15 9 -15 28 -13
32 13 26 12 -3 42 1 66 10 37 13 111 15 467 15 258 0 433 -4 449 -10 l26 -10
-6 -243 c-3 -133 -8 -266 -11 -294 l-5 -53 -95 0 c-57 0 -94 4 -94 10 0 6 -10
8 -23 5 -14 -4 -174 45 -452 139 -236 81 -431 146 -432 146 -2 0 -3 -74 -3
-165 l0 -165 230 0 230 0 0 -141 c0 -78 -5 -149 -10 -160 -8 -13 -7 -32 1 -61
15 -56 3 -208 -16 -208 -8 0 -27 -12 -42 -26 -26 -25 -32 -26 -98 -19 -38 4
-74 10 -80 15 -18 15 -138 15 -177 0 -29 -11 -38 -20 -38 -37 0 -20 3 -22 19
-13 21 11 233 7 289 -5 27 -6 32 -11 30 -34 -3 -24 0 -26 45 -29 31 -2 55 2
69 12 12 9 30 16 40 16 11 0 18 7 18 19 0 22 -24 19 285 27 116 3 229 2 253
-1 l42 -6 0 -52 c0 -29 -3 -61 -6 -72 -3 -13 -57 -50 -148 -102 -79 -46 -148
-83 -154 -83 -6 0 -12 -4 -14 -8 -3 -10 -159 -102 -263 -156 -38 -20 -85 -48
-104 -61 -37 -27 -70 -31 -103 -14 -16 9 -24 7 -42 -10 -12 -12 -25 -18 -28
-15 -4 3 -22 9 -41 14 -31 7 -36 5 -46 -16 -13 -29 -25 -30 -79 -4 -22 11 -46
20 -52 20 -6 0 -10 -50 -10 -143 l0 -144 207 -53 c115 -29 212 -56 216 -60 5
-4 11 -44 14 -89 5 -76 4 -83 -17 -106 -21 -23 -22 -27 -10 -51 20 -37 3 -44
-106 -44 -78 0 -95 3 -118 21 -25 20 -28 20 -46 4 -11 -10 -32 -16 -52 -15
-67 4 -88 0 -88 -15 0 -12 15 -15 75 -15 64 0 85 -5 136 -30 55 -28 59 -29 49
-10 -6 12 -9 24 -6 28 4 3 66 5 139 3 72 -1 143 -2 157 -1 177 8 323 10 358 5
40 -6 42 -8 42 -40 0 -29 6 -39 38 -60 21 -13 46 -38 55 -55 10 -16 22 -30 28
-30 12 0 12 -126 -1 -172 -10 -35 -13 -37 -63 -42 -54 -6 -345 -24 -482 -31
-100 -4 -379 -23 -462 -31 l-63 -6 0 -169 c0 -157 1 -170 18 -165 34 9 392 29
399 22 13 -12 7 -417 -5 -448 l-12 -28 -200 0 -200 0 0 -445 0 -445 170 -85
c94 -47 170 -88 170 -93 -1 -4 -5 -26 -9 -49 -7 -36 -6 -43 8 -43 30 -1 71
-47 71 -80 0 -35 17 -33 -237 -32 -144 1 -173 -2 -173 -14 0 -11 24 -14 133
-14 141 0 175 -9 192 -48 13 -29 24 -28 74 10 l42 33 129 1 c122 2 129 1 150
-21 20 -21 24 -22 53 -10 27 11 35 11 52 -1 10 -8 27 -14 38 -14 15 0 18 -5
15 -25 -6 -30 -5 -30 42 -4 22 13 41 32 44 45 6 24 22 30 42 16 7 -4 -96 -117
-272 -296 l-283 -288 -64 -5 -64 -5 -29 46 -29 46 -47 -47 -48 -47 -85 1 -86
1 3 -121 3 -121 135 -23 c89 -16 137 -28 143 -38 4 -8 17 -15 28 -15 12 0 28
-14 40 -35 12 -19 27 -35 35 -35 22 0 36 -37 23 -61 -8 -15 -8 -24 0 -32 6 -6
11 -46 11 -89 l0 -78 -81 0 -80 0 -23 52 -23 52 -14 -45 c-13 -40 -17 -44 -54
-51 -22 -4 -64 -7 -92 -7 -40 -1 -53 -5 -53 -16 0 -13 16 -14 103 -9 92 6 107
5 144 -15 43 -21 89 -29 79 -12 -10 15 25 22 139 28 94 5 112 3 124 -11 17
-20 45 -20 102 -1 35 12 84 15 224 13 l180 -3 3 -219 c2 -184 0 -223 -13 -242
-14 -22 -14 -27 0 -54 8 -16 15 -45 15 -65 l0 -37 -197 4 c-180 3 -202 6 -238
25 -52 28 -112 32 -147 9 -27 -18 -27 -18 -64 18 -20 20 -41 36 -46 36 -5 0
-96 72 -203 160 -106 88 -196 160 -199 160 -3 0 -6 -96 -6 -214 l0 -214 68 -7
c37 -4 126 -8 199 -9 72 0 134 -4 138 -8 3 -3 2 -22 -3 -41 -6 -20 -7 -38 -4
-42 4 -3 8 -23 9 -43 7 -90 12 -140 18 -179 6 -32 3 -49 -9 -69 -10 -14 -15
-31 -13 -38 4 -9 -2 -11 -17 -9 -13 3 -29 -3 -39 -15 -14 -16 -16 -28 -9 -79
l8 -61 -29 9 c-18 5 -37 4 -48 -2 -11 -5 -23 -7 -28 -4 -5 3 -33 -1 -63 -8
-29 -8 -70 -12 -90 -9 -53 6 -88 -5 -88 -27 0 -16 5 -17 58 -9 31 5 113 8 181
6 l125 -4 8 -30 c4 -16 21 -40 38 -52 l30 -23 14 33 c8 18 17 41 20 50 7 22
34 23 72 3 39 -20 56 -19 77 5 16 19 29 20 246 20 199 0 230 -2 235 -16 10
-26 7 -162 -4 -169 -6 -4 -19 -24 -30 -45 -20 -38 -20 -39 0 -45 31 -10 41
-68 38 -210 -3 -121 -4 -130 -23 -133 -19 -2 -87 18 -163 49 -30 13 -37 12
-85 -14 -71 -37 -140 -38 -163 -2 -9 14 -33 29 -55 35 -21 6 -47 19 -56 29
-50 50 -87 66 -153 66 -64 1 -68 3 -215 90 -82 48 -160 95 -173 103 l-22 14 0
-200 0 -200 33 -5 c17 -3 36 -1 42 4 5 5 89 9 187 9 l178 0 0 -191 0 -191 -45
-40 c-41 -36 -45 -43 -39 -72 3 -18 1 -52 -6 -74 -11 -42 -11 -42 -59 -42 -27
0 -66 6 -88 14 -22 8 -51 12 -64 9 -13 -2 -48 5 -77 16 -29 12 -55 21 -57 21
-3 0 -5 -18 -5 -40 l0 -40 5120 0 5120 0 0 43 c0 43 -1 44 -42 56 -24 7 -193
67 -376 134 -367 134 -336 116 -320 188 2 9 -7 15 -24 17 -20 2 -30 11 -38 35
-6 18 -21 44 -33 60 -17 20 -22 37 -19 62 5 41 17 43 64 11 l35 -23 22 25 c21
24 25 24 134 20 62 -2 122 -10 134 -16 19 -10 27 -10 48 4 20 13 37 15 87 9
35 -5 122 -8 193 -7 l130 0 3 198 c2 186 1 200 -18 226 -11 15 -20 32 -20 38
0 5 -12 10 -27 10 -30 1 -50 10 -101 49 -28 22 -32 31 -32 72 l0 47 65 7 c35
4 80 4 100 1 49 -10 47 17 -3 37 -63 25 -113 32 -123 16 -7 -11 -9 -10 -9 4 0
10 -13 32 -29 48 -26 26 -37 29 -89 29 -53 0 -62 -3 -76 -25 -9 -14 -20 -25
-24 -25 -13 0 -124 298 -116 311 4 7 3 9 -3 6 -8 -5 -53 91 -58 123 -1 3 -9
22 -18 44 -9 21 -17 42 -17 47 0 14 32 18 140 19 58 0 112 1 120 1 8 1 88 3
178 6 l162 4 0 218 0 219 -95 78 c-99 81 -121 118 -67 112 19 -2 28 -9 30 -24
3 -20 6 -21 35 -11 66 22 97 38 97 52 0 10 -10 15 -30 15 -18 0 -37 8 -47 20
-21 25 -31 25 -56 3 -17 -16 -47 -18 -260 -20 -133 -2 -291 1 -352 5 l-110 7
-3 95 c-3 85 -1 96 18 110 26 20 30 92 7 118 -28 30 -22 172 8 209 1 2 183
-29 405 -67 221 -39 406 -70 411 -70 5 0 9 54 9 119 l0 120 -45 7 c-46 6 -86
3 -117 -11 -23 -9 -25 22 -3 51 19 26 19 32 -5 39 -17 6 -20 14 -18 51 l3 44
43 0 c23 0 42 2 42 5 0 22 -35 65 -65 79 -46 22 -47 57 -2 104 31 33 32 34 12
48 -17 13 -20 27 -20 99 -1 80 1 85 20 85 12 0 26 -5 33 -12 9 -9 15 -9 24 0
15 15 45 16 50 1 5 -16 48 11 48 31 0 13 -52 15 -426 13 l-427 -1 6 96 c4 54
7 173 7 265 0 160 1 169 20 174 22 6 26 33 8 51 -9 9 -7 12 10 12 13 0 25 -6
28 -14 3 -8 19 -19 34 -25 25 -8 35 -6 67 16 51 35 78 33 113 -8 27 -33 28
-34 71 -22 36 9 47 9 60 -3 19 -17 61 -18 77 -2 8 8 52 -9 178 -70 91 -45 168
-82 170 -82 2 0 3 201 2 448 l-3 447 -118 -3 c-104 -3 -122 -1 -163 18 l-45
22 -23 -21 c-21 -20 -32 -21 -250 -21 l-227 0 5 191 c2 105 6 193 9 195 4 5
737 64 790 64 l27 0 0 171 0 170 -60 -2 c-67 -3 -76 1 -62 28 10 17 1 101 -13
123 -3 5 -7 32 -9 60 -2 28 -11 59 -20 69 -19 21 -19 25 -5 89 8 38 16 52 37
62 15 8 32 13 38 12 6 -1 17 5 24 13 7 8 25 15 41 15 18 0 29 5 29 14 0 15
-48 28 -56 15 -11 -18 -58 -8 -94 21 -33 27 -39 28 -51 14 -34 -41 -57 -44
-342 -44 l-275 0 -6 43 c-5 30 -2 52 10 76 15 30 15 36 1 74 -12 33 -15 81
-14 222 l2 180 34 3 c37 4 208 -35 217 -49 3 -5 16 -9 30 -9 14 0 137 -29 273
-65 137 -36 253 -65 260 -65 18 0 15 276 -3 283 -8 3 -20 -1 -26 -9 -13 -15
-58 -18 -98 -7 -21 5 -23 10 -19 42 9 62 24 120 34 133 15 19 22 80 12 100 -7
12 -4 18 10 23 36 11 33 45 -6 82 -21 18 -32 33 -27 33 6 0 19 6 29 14 19 14
19 15 2 34 -10 10 -19 36 -21 56 -1 21 -8 41 -16 46 -21 13 61 22 100 10 19
-5 36 -10 37 -10 2 0 3 11 3 25 0 19 -7 26 -27 31 -48 11 -504 287 -490 297 8
6 6 7 -6 3 -11 -3 -35 5 -60 21 -23 15 -51 33 -63 39 -60 32 -165 98 -170 105
-3 5 0 9 7 9 7 0 9 10 7 25 l-5 24 25 -19 c46 -37 72 -27 136 53 l39 48 106
-3 c58 -2 195 -2 304 0 l197 2 -2 167 -3 166 -45 16 c-112 39 -120 53 -120
202 l0 89 70 0 c39 0 70 -4 70 -8 0 -5 7 -17 15 -28 13 -17 14 -11 15 67 l0
86 -145 43 c-107 32 -145 48 -145 59 0 14 -2 14 -10 1 -9 -13 -14 -11 -31 13
-19 25 -69 41 -54 17 4 -6 10 -8 15 -5 5 3 12 0 16 -6 5 -9 -2 -10 -27 -5 -19
3 -36 11 -37 16 -2 6 -7 8 -12 5 -4 -2 -36 4 -71 15 -35 10 -125 38 -199 60
-74 22 -135 42 -136 43 -1 1 -5 25 -9 53 -5 40 -3 53 9 63 12 10 16 32 16 82
l0 69 149 0 c136 0 150 -2 155 -18 9 -26 71 -44 102 -30 13 6 24 17 24 25 0 9
14 13 43 14 23 0 80 2 127 3 47 2 115 4 153 4 l67 2 0 149 0 149 -32 8 c-18 3
-52 16 -76 28 -37 18 -41 22 -27 32 14 10 15 16 5 35 -10 19 -10 24 4 34 17
13 22 40 8 49 -5 3 -9 29 -11 58 -1 29 -4 60 -7 70 -4 13 8 18 68 26 48 6
-1710 10 -5051 11 -2818 0 -5122 -1 -5119 -4z m2403 -27 c13 -20 14 -57 9
-293 -6 -255 -15 -332 -30 -277 -4 12 -14 22 -24 22 -10 0 -24 -10 -32 -22
-15 -22 -21 -23 -212 -26 -135 -2 -202 0 -211 8 -10 8 -34 8 -90 1 -42 -6
-123 -11 -181 -11 -96 0 -109 2 -164 30 -70 35 -79 36 -113 10 -23 -18 -67
-28 -67 -14 0 8 265 347 284 363 9 7 36 44 61 81 24 36 56 72 70 78 14 7 28
19 31 27 4 9 19 15 39 15 19 0 37 5 41 11 5 8 50 9 158 4 187 -8 185 -8 276 3
125 15 137 14 155 -10z m940 -23 c19 -22 37 -53 40 -68 5 -22 11 -27 23 -21
15 6 40 15 92 32 8 3 20 4 25 2 6 -2 25 -6 44 -9 34 -6 34 -6 -200 -195 -129
-104 -241 -195 -249 -202 -13 -11 -26 -6 -80 32 -58 40 -65 43 -73 27 -5 -10
-21 -31 -36 -46 -14 -15 -35 -47 -46 -70 -19 -41 -22 -42 -80 -48 -33 -4 -110
-7 -170 -8 -128 -1 -151 8 -160 67 -3 20 -10 45 -16 54 -11 21 -15 303 -5 336
6 17 13 21 27 17 16 -5 19 -1 19 27 -1 18 -7 44 -15 58 -8 14 -14 30 -15 37 0
16 109 20 518 19 l323 -1 34 -40z m1165 33 c14 1 110 5 214 8 l189 6 -6 -110
c-4 -61 -12 -125 -20 -143 -9 -24 -10 -52 -4 -109 8 -68 6 -82 -11 -116 -11
-22 -23 -59 -27 -84 -4 -25 -12 -48 -19 -52 -6 -4 -166 -7 -356 -8 -280 0
-354 2 -388 14 -30 11 -50 12 -74 5 -40 -11 -118 -12 -136 0 -10 6 8 42 74
149 48 78 91 142 95 142 5 0 9 8 9 18 0 10 13 33 30 52 16 18 33 43 36 54 5
16 89 160 98 167 6 5 217 14 241 10 17 -3 41 -5 55 -3z m550 2 c0 -6 10 -8 24
-4 19 4 27 -1 44 -30 15 -25 28 -36 45 -36 28 0 60 31 52 51 -6 15 -3 16 131
25 88 6 154 -11 154 -40 0 -8 4 -18 10 -21 11 -7 81 27 99 49 11 13 34 16 110
16 53 0 101 -4 106 -9 14 -12 81 -21 91 -11 5 4 48 10 97 13 123 8 121 12 102
-208 -8 -93 -18 -177 -21 -187 -3 -10 -18 -19 -37 -22 -32 -5 -913 -27 -1059
-26 l-78 0 0 96 c0 52 7 127 16 166 9 40 14 94 12 124 -3 33 0 55 6 58 22 9
96 6 96 -4z m1778 -2 c56 0 102 -4 102 -8 0 -5 6 -7 14 -4 8 3 52 7 98 9 46 2
138 7 205 11 l122 7 6 -26 c7 -27 -12 -465 -22 -504 -3 -15 -13 -23 -27 -23
-11 0 -140 23 -286 51 -146 28 -292 55 -325 60 -209 33 -551 102 -557 112 -14
22 -8 64 12 82 24 22 25 38 5 55 -23 19 -20 128 5 158 19 23 22 23 116 15 68
-6 117 -5 167 4 43 7 111 10 167 7 52 -3 141 -6 198 -6z m908 2 c11 -11 45
-12 172 -4 79 5 96 3 112 -11 11 -10 20 -13 24 -6 5 7 19 4 42 -7 27 -12 72
-66 183 -217 141 -191 148 -203 155 -258 4 -34 2 -66 -4 -77 -16 -29 -78 -27
-124 5 -45 31 -47 31 -75 1 -15 -16 -39 -27 -71 -31 -61 -8 -90 0 -90 27 0 19
-2 19 -21 -6 -19 -25 -25 -26 -110 -26 -76 0 -92 3 -109 20 -25 25 -50 25 -81
1 -16 -12 -31 -16 -44 -11 -11 5 -39 6 -61 3 -24 -3 -44 -1 -48 5 -5 8 -15 8
-32 2 -14 -6 -54 -10 -89 -10 -55 0 -65 3 -70 20 -8 26 12 172 25 180 7 4 5
20 -5 43 -20 49 -20 103 2 115 13 8 15 19 9 73 -16 133 -16 130 12 155 25 22
35 23 158 24 72 0 134 -4 140 -10z m1731 -1 c9 -9 19 -9 42 1 19 7 47 10 73 6
24 -4 59 -7 78 -7 19 0 49 -4 67 -10 25 -8 39 -7 62 5 20 11 58 16 116 16 83
0 86 -1 95 -26 13 -34 13 -500 0 -524 -7 -13 -7 -21 0 -25 5 -3 10 -15 10 -26
0 -17 -8 -19 -91 -19 -76 0 -95 3 -116 20 -31 24 -105 25 -141 3 -18 -11 -31
-12 -55 -4 -32 10 -89 9 -118 -3 -12 -5 -23 5 -43 38 -15 25 -33 46 -40 46 -7
0 -25 -18 -39 -39 -29 -43 -65 -57 -121 -47 -31 6 -36 14 -122 203 -49 108
-89 204 -90 214 -1 9 -11 32 -23 51 -42 66 -61 112 -48 120 20 13 97 9 101 -4
17 -61 34 -154 29 -162 -4 -7 -3 -8 4 -1 8 8 29 69 38 110 1 6 15 10 30 10 19
0 33 7 40 20 8 16 19 20 61 18 28 -1 69 5 90 12 48 17 96 19 111 4z m-977
-541 c23 -31 27 -44 18 -50 -24 -15 -35 -8 -41 25 -3 17 -8 40 -12 50 -12 30
4 19 35 -25z m-7711 -97 c7 -5 27 -4 45 1 32 10 45 6 116 -33 30 -16 35 -17
38 -4 4 18 16 19 41 4 14 -10 27 -7 64 11 42 21 48 22 70 7 22 -14 24 -14 36
5 12 19 20 20 219 14 114 -3 216 -5 227 -4 49 2 97 -1 102 -6 4 -3 7 -140 7
-304 l1 -297 -127 -3 c-112 -2 -130 0 -160 18 -40 24 -91 26 -109 4 -11 -13
-27 -15 -84 -12 l-71 5 -343 257 c-327 246 -343 259 -338 285 3 16 1 33 -6 40
-8 8 -1 11 29 11 22 0 46 -6 52 -12 10 -10 17 -10 31 -1 10 7 28 9 39 6 11 -3
29 0 39 6 22 13 63 14 82 2z m3911 -4 c19 0 38 -5 42 -10 4 -7 21 -7 50 -1 29
6 67 5 118 -4 58 -9 81 -10 103 -1 20 9 31 9 35 2 10 -15 82 -44 82 -32 0 32
122 64 157 41 9 -6 -34 -90 -148 -292 -89 -157 -163 -287 -166 -290 -3 -3 -38
-4 -79 -2 -132 4 -188 4 -264 -2 -170 -13 -278 -10 -306 9 -14 9 -23 12 -19 5
5 -8 1 -11 -11 -8 -18 3 -19 15 -18 173 1 94 5 228 9 298 l7 129 187 -8 c102
-4 202 -7 221 -7z m1043 -11 c4 -6 12 -28 17 -48 6 -20 14 -39 18 -42 4 -2 34
9 67 25 33 16 68 29 78 29 18 0 18 1 3 25 l-16 24 113 -3 c61 -2 119 -6 128
-10 8 -4 28 -2 43 3 17 7 73 8 149 4 67 -3 152 -5 190 -4 37 1 67 -2 67 -7 0
-5 18 -12 41 -15 53 -7 57 -12 36 -49 -16 -27 -16 -30 -1 -24 14 5 15 0 10
-38 -5 -32 -3 -54 8 -75 17 -32 21 -79 8 -97 -4 -6 -108 -30 -232 -53 -124
-24 -304 -58 -400 -76 -528 -102 -481 -96 -520 -77 -33 16 -35 20 -39 72 -5
82 -1 442 6 453 8 13 216 -2 226 -17z m2005 7 c9 -16 11 -16 36 0 14 9 40 17
57 17 41 0 109 -20 109 -33 0 -5 11 -2 25 7 28 19 45 21 45 5 0 -6 -9 -13 -21
-16 -16 -4 -17 -8 -7 -14 9 -6 8 -9 -7 -9 -18 0 -62 -38 -58 -50 1 -2 21 -9
45 -15 l43 -10 3 -84 c2 -73 0 -89 -18 -113 -11 -15 -16 -28 -10 -28 15 0 12
-33 -6 -59 -15 -21 -15 -26 1 -62 15 -32 16 -44 7 -65 -7 -15 -17 -22 -24 -18
-7 5 -9 0 -6 -14 5 -19 2 -22 -21 -22 -15 0 -32 5 -38 11 -8 8 -20 7 -44 -4
-70 -31 -109 -32 -109 -2 0 8 -8 13 -17 13 -10 0 -30 3 -45 7 -17 4 -28 3 -28
-3 0 -19 -264 -39 -409 -32 -55 3 -102 8 -104 10 -2 3 -15 132 -28 288 -20
246 -21 285 -8 293 18 11 102 11 150 0 25 -6 53 -4 85 5 31 8 113 13 221 13
151 1 173 -1 181 -16z m352 -3 c5 0 12 -9 15 -21 5 -15 10 -18 18 -10 6 6 19
11 29 11 10 0 30 7 44 16 19 13 38 15 86 10 58 -6 222 -58 243 -77 5 -5 16 -9
23 -9 24 0 772 -281 779 -292 15 -26 5 -115 -20 -171 l-27 -59 -142 6 c-79 4
-160 6 -180 6 -105 -3 -333 -4 -408 -2 -47 0 -182 0 -300 -1 l-215 -2 3 120
c3 113 4 121 27 142 29 26 31 36 10 53 -12 10 -14 24 -9 57 4 28 3 43 -4 43
-17 0 -26 68 -12 85 7 9 8 20 3 30 -14 25 -4 77 14 71 8 -3 18 -6 23 -6z
m-5983 -93 c23 -14 44 -31 48 -37 8 -13 45 -13 45 -1 0 26 63 17 352 -55 172
-42 317 -80 322 -84 5 -5 -3 -19 -17 -32 l-26 -24 27 -17 c37 -21 101 -85 124
-122 11 -19 18 -49 18 -82 l0 -53 -447 1 c-324 0 -450 4 -455 12 -5 9 -16 8
-41 -1 -38 -14 -263 -17 -271 -3 -3 4 0 37 6 72 6 35 10 71 9 79 -7 81 -5 198
3 212 7 12 6 24 -3 42 -13 24 -11 152 3 175 9 14 256 -53 303 -82z m1502 -52
c217 -47 396 -85 397 -85 1 0 0 -8 -3 -18 -3 -12 1 -19 10 -19 9 0 13 6 10 14
-4 9 0 11 11 7 9 -3 16 -10 16 -15 0 -6 9 -5 20 1 24 13 130 -5 142 -24 15
-22 8 -73 -11 -90 -14 -12 -17 -23 -12 -35 24 -48 39 -112 32 -138 -11 -43
-63 -52 -261 -45 -173 6 -180 6 -273 -4 -33 -3 -63 -2 -70 4 -24 20 -82 25
-96 8 -12 -14 -46 -16 -242 -16 l-229 0 1 48 c1 26 -4 60 -10 76 -13 31 -7
149 10 226 11 47 46 80 101 93 21 6 27 15 32 52 4 25 13 45 19 45 7 0 190 -38
406 -85z m-2337 -492 c17 -15 19 -15 38 2 17 15 31 17 102 11 46 -3 123 -8
172 -10 101 -6 146 -14 146 -26 0 -5 26 -28 58 -52 74 -55 472 -394 494 -422
21 -26 15 -36 -23 -36 -17 0 -39 -5 -49 -10 -15 -8 -21 -6 -30 10 -15 28 -54
25 -97 -7 -20 -16 -39 -27 -42 -27 -3 1 -12 -1 -20 -4 -8 -3 -31 4 -51 16
l-37 21 -12 -26 c-10 -22 -17 -25 -51 -21 -27 2 -41 -1 -45 -10 -4 -12 -41
-13 -223 -8 -270 8 -309 8 -401 0 l-74 -7 8 24 c4 13 9 98 10 189 2 91 8 197
15 235 7 39 13 80 14 93 0 13 6 20 14 17 8 -3 12 6 12 24 0 42 39 54 72 24z
m4452 -4 c20 -9 35 -10 63 -1 27 8 40 8 50 0 9 -7 17 -7 27 1 13 11 186 12
186 2 0 -3 -7 -13 -16 -22 -16 -18 -28 -99 -15 -99 7 0 10 -19 17 -122 5 -68
3 -84 -19 -131 -23 -51 -24 -55 -7 -78 24 -34 30 -67 18 -98 -6 -14 -11 -29
-10 -33 3 -15 -95 -19 -369 -16 -266 3 -288 4 -308 22 -20 18 -22 18 -39 3
-20 -18 -78 -22 -101 -8 -12 8 -11 50 3 292 12 188 22 286 29 291 18 12 160 9
214 -3 42 -10 54 -9 79 5 33 19 152 16 198 -5z m1621 -23 c-4 -23 -12 -61 -17
-86 -12 -58 -11 -181 2 -194 11 -11 14 -215 2 -232 -4 -6 -29 -23 -57 -38 -58
-30 -149 -37 -159 -11 -6 18 -37 20 -53 4 -7 -7 -52 -10 -130 -8 -127 4 -136
8 -216 80 -17 16 -36 29 -41 29 -7 0 -496 342 -529 371 -5 4 -4 10 1 13 6 3
24 -6 41 -20 19 -15 38 -24 47 -20 15 6 15 8 0 32 -10 14 -14 33 -11 44 7 21
30 27 40 10 10 -16 21 -12 35 15 13 24 14 24 38 9 24 -16 26 -16 41 3 35 43
36 43 515 41 l458 -1 -7 -41z m781 23 c22 8 76 12 142 11 59 -1 173 1 253 5
l146 8 5 -204 c6 -280 0 -396 -20 -404 -9 -3 -126 -8 -261 -11 l-244 -5 -38
26 c-22 14 -39 29 -39 34 0 5 -16 -7 -35 -26 -34 -34 -38 -35 -88 -29 -29 3
-83 6 -122 6 -38 0 -76 4 -82 8 -10 6 -7 66 12 272 14 146 25 272 25 280 0 13
1 13 10 0 9 -13 14 -11 34 12 21 24 33 27 93 30 38 2 92 -3 121 -11 44 -12 59
-12 88 -2z m795 -9 c34 -28 39 -29 90 -21 32 5 61 5 71 0 13 -7 16 -6 12 5 -4
11 0 13 14 9 11 -2 34 3 52 12 18 10 41 14 54 10 11 -3 39 -8 60 -11 22 -3 49
-10 60 -16 15 -8 21 -8 24 1 3 9 8 9 20 -1 18 -15 149 -15 165 1 7 7 16 7 28
0 14 -7 21 -5 31 11 11 18 23 20 98 20 47 0 90 -4 97 -8 17 -11 -155 -313
-186 -327 -15 -7 -20 -16 -17 -29 7 -26 -100 -215 -128 -226 -16 -6 -26 -2
-41 16 -43 50 -93 47 -143 -10 l-22 -26 -273 2 -272 3 -3 87 c-3 80 -1 88 18
98 21 11 21 12 -5 36 -33 31 -32 77 3 82 l22 3 -21 18 c-20 16 -22 28 -26 154
l-3 137 92 -1 c86 -1 95 -3 129 -29z m-5492 -6 c53 -3 60 -10 80 -71 15 -45
18 -48 56 -53 l40 -5 -4 -45 c-1 -25 -9 -49 -17 -53 -19 -11 -18 -99 1 -174
10 -38 13 -78 9 -118 l-6 -60 -584 0 c-439 0 -586 3 -595 12 -9 9 -10 29 -3
74 l9 63 364 218 c325 196 365 217 380 204 13 -12 25 -13 61 -4 25 6 54 14 65
19 11 5 38 6 60 2 22 -3 60 -7 84 -9z m531 -134 c85 -5 220 -12 300 -15 261
-10 309 -15 303 -32 -5 -13 -1 -13 26 2 27 13 49 15 125 9 l94 -7 6 -45 c8
-58 8 -325 0 -346 -5 -13 -26 -16 -128 -16 -113 0 -124 2 -158 25 -25 17 -36
20 -32 10 4 -9 0 -16 -7 -17 -8 0 -27 -3 -44 -5 -16 -2 -72 -6 -124 -9 -77 -5
-100 -2 -126 12 -30 16 -34 16 -56 1 -20 -15 -57 -17 -273 -17 l-249 0 7 88
c3 48 15 111 26 139 18 47 18 55 5 87 -16 37 -19 85 -9 124 6 20 12 22 83 22
42 -1 146 -5 231 -10z m-3055 -483 c200 9 497 11 540 5 46 -7 52 -11 69 -47
10 -22 22 -42 26 -45 7 -5 -205 -283 -232 -305 -7 -5 -19 -22 -27 -37 -8 -15
-42 -58 -76 -95 l-62 -68 -124 -3 c-68 -1 -214 -5 -325 -8 l-201 -6 -7 32 c-3
18 -6 100 -6 182 0 117 3 156 16 180 12 23 13 33 4 38 -9 5 -9 22 0 67 6 38 7
69 1 85 l-9 24 145 1 c80 1 147 4 150 7 2 2 17 1 31 -2 15 -4 54 -6 87 -5z
m2063 4 c12 -7 13 -61 7 -303 l-8 -295 -53 0 c-40 0 -54 4 -54 14 0 11 -7 9
-30 -7 -28 -20 -39 -21 -167 -17 -76 3 -142 5 -148 5 -5 0 -52 -2 -103 -5
-105 -5 -122 2 -144 63 -16 45 -43 45 -58 0 -6 -19 -21 -38 -36 -45 -30 -13
-124 -15 -124 -2 0 6 -21 16 -46 23 -73 20 -76 37 -21 98 26 29 47 57 47 62 0
6 63 97 141 204 127 175 143 194 175 200 38 7 134 1 302 -18 97 -11 104 -11
145 9 44 23 149 31 175 14z m1854 -12 c24 -13 52 -11 66 3 13 13 425 24 488
13 29 -5 32 -10 43 -63 7 -31 11 -79 9 -107 -3 -45 -6 -52 -36 -67 -30 -15
-32 -17 -13 -23 15 -5 21 -15 21 -38 2 -71 8 -156 13 -164 12 -20 18 -77 13
-109 l-7 -34 -192 -1 c-536 -2 -583 0 -573 26 3 8 -11 63 -30 122 -54 164
-126 434 -119 441 19 20 280 20 317 1z m2735 -10 c18 -17 44 -28 72 -32 76
-10 79 -20 43 -139 -18 -57 -49 -154 -70 -217 l-38 -114 -73 -27 c-64 -23 -81
-26 -124 -18 -46 9 -52 7 -76 -16 -24 -23 -35 -26 -103 -26 -74 0 -77 1 -98
30 -21 29 -62 41 -74 21 -3 -5 -14 -11 -25 -14 -14 -3 -18 -1 -14 9 4 11 -6
14 -44 14 -40 0 -55 -6 -83 -30 -26 -22 -45 -29 -76 -30 l-42 0 -7 133 c-6
112 -4 220 7 440 l2 37 228 -4 c126 -2 231 -6 234 -9 3 -2 21 2 42 9 26 10 76
13 164 11 121 -2 128 -3 155 -28z m1112 22 c103 -6 125 -10 137 -25 7 -11 11
-23 8 -27 -3 -5 -1 -9 4 -9 11 0 170 -247 222 -345 18 -32 38 -64 44 -70 15
-12 56 -70 56 -79 0 -3 -22 -6 -50 -6 -52 0 -90 23 -90 54 0 8 -5 18 -10 21
-15 9 -40 -14 -40 -35 0 -10 -8 -28 -19 -41 -15 -19 -22 -21 -33 -11 -12 9
-19 9 -34 -3 -10 -8 -37 -15 -59 -15 -23 0 -46 -5 -52 -11 -10 -10 -326 -8
-558 3 -49 2 -96 0 -103 -5 -20 -15 -27 0 -28 61 -1 32 -7 93 -13 137 -7 45
-10 102 -6 130 4 28 7 62 7 78 -1 17 4 27 13 27 21 0 55 50 55 81 0 22 5 29
20 29 15 0 20 7 20 25 0 30 20 41 47 27 13 -7 24 -6 38 4 21 16 203 18 424 5z
m-4471 -299 c2 -125 0 -243 -5 -262 -11 -42 40 -38 -506 -46 -367 -5 -420 -4
-435 9 -15 13 -20 14 -36 1 -29 -21 -179 -19 -200 2 -24 23 -19 53 14 91 21
24 29 41 25 54 -12 38 13 85 63 116 26 17 58 34 70 38 16 5 22 13 19 25 -4 15
31 25 290 85 162 37 304 69 316 71 12 2 56 12 97 24 41 11 109 23 150 26 41 3
82 10 90 15 9 5 20 3 30 -7 12 -11 15 -58 18 -242z m1572 168 c96 -12 182 -24
190 -27 8 -3 20 -5 27 -4 23 3 578 -70 586 -78 5 -5 2 -25 -7 -45 l-15 -36 53
-59 c56 -64 76 -111 76 -185 l0 -46 -78 0 c-43 0 -81 3 -84 6 -3 3 -115 7
-249 9 -134 3 -248 5 -254 5 -5 0 -51 -3 -101 -6 -62 -4 -94 -2 -98 5 -5 7
-13 8 -24 2 -10 -5 -90 -9 -177 -8 l-160 2 3 205 c1 113 5 214 7 225 5 25 81
66 110 60 11 -2 99 -14 195 -25z m-4443 -520 c4 -13 9 -17 17 -12 33 25 161
33 476 28 399 -6 371 -6 455 -3 l70 2 -2 -135 c-4 -206 -8 -284 -16 -297 -4
-6 -8 -45 -9 -86 l-1 -74 -40 9 c-26 6 -44 5 -52 -2 -8 -6 -75 -11 -166 -12
l-154 -1 -367 209 c-330 187 -368 211 -368 234 0 13 -10 48 -21 76 -33 78 -27
84 82 84 83 0 91 -2 96 -20z m1789 10 c19 -8 35 -8 53 0 18 7 73 7 176 0 83
-5 158 -10 168 -10 9 -1 17 -6 17 -12 0 -6 11 -1 25 12 14 13 25 19 25 12 0
-6 -11 -19 -23 -29 -18 -14 -22 -24 -16 -38 12 -32 11 -57 -3 -49 -7 5 -1 -7
15 -25 25 -30 27 -40 27 -115 0 -91 -9 -108 -64 -122 l-29 -7 7 -86 c4 -51 13
-95 22 -110 l17 -24 -85 6 c-70 5 -116 17 -269 72 -101 36 -312 110 -469 164
-157 54 -292 102 -301 105 -19 8 -33 108 -19 135 4 9 15 32 24 52 22 52 61 75
100 61 21 -8 60 -8 124 -2 113 10 126 7 118 -31 -5 -26 -3 -29 22 -29 22 0 31
8 46 40 l19 40 123 0 c67 0 135 -5 150 -10z m1636 -6 l47 -6 -6 -81 c-3 -48
-11 -86 -18 -92 -11 -9 -10 -17 2 -45 9 -22 12 -49 9 -73 -4 -24 -1 -48 9 -67
16 -31 19 -105 9 -184 l-7 -47 -46 6 c-64 9 -435 115 -439 126 -2 5 -8 7 -13
4 -8 -5 -212 50 -234 63 -5 3 -17 7 -27 7 -9 1 -93 24 -187 51 l-171 49 -6 33
c-4 19 -18 44 -31 56 -19 18 -26 36 -30 84 -10 105 -9 107 99 110 51 2 109 7
128 12 37 10 831 5 912 -6z m1279 -1 c26 -26 -6 -62 -194 -220 -105 -89 -225
-189 -265 -224 -53 -45 -76 -59 -84 -51 -8 8 -24 4 -57 -15 -25 -14 -53 -31
-61 -38 -52 -44 -142 -55 -326 -41 -66 5 -104 4 -108 -2 -8 -14 -46 -3 -46 13
0 8 -7 21 -16 29 -11 11 -14 25 -9 45 3 17 0 44 -10 67 -13 32 -15 77 -13 239
l3 200 40 7 c22 3 286 5 587 5 404 -2 550 -5 559 -14z m598 3 c15 -8 33 -22
40 -30 12 -14 17 -13 45 9 18 14 43 25 54 25 20 0 22 -5 22 -49 l0 -49 83 5
c45 3 83 6 84 7 1 1 -3 19 -9 40 -13 42 -3 56 40 56 29 0 82 -51 82 -79 0 -11
4 -23 10 -26 10 -6 25 21 34 68 6 26 8 27 73 27 83 0 113 -22 113 -81 0 -25 8
-47 25 -67 24 -29 25 -34 22 -160 -1 -72 -4 -132 -7 -135 -3 -2 -279 4 -614
13 -489 14 -610 20 -617 31 -9 13 -8 29 7 145 4 26 2 50 -4 56 -5 5 -8 27 -5
47 3 24 -1 49 -11 69 -16 32 -21 74 -9 85 3 4 121 7 260 7 201 0 260 -3 282
-14z m1101 5 l166 -8 129 -79 c72 -43 149 -93 173 -111 24 -18 48 -33 54 -33
6 0 94 -50 195 -112 164 -100 183 -114 167 -125 -16 -11 -16 -17 -6 -46 7 -19
12 -36 12 -40 0 -14 -32 -7 -57 13 -25 19 -25 19 -71 -5 -116 -58 -137 -64
-182 -53 -29 8 -48 8 -59 1 -18 -11 -835 -13 -846 -2 -12 13 20 62 49 74 l30
13 -40 11 -41 11 -6 67 c-4 38 -10 118 -13 179 l-7 111 42 43 c22 23 41 48 41
55 0 25 31 45 68 44 20 0 111 -4 202 -8z m2300 -4 c0 -7 -9 -20 -20 -30 -24
-20 -25 -44 -5 -71 17 -22 20 -63 5 -68 -6 -2 -4 -20 4 -48 20 -65 21 -339 2
-366 -14 -18 -28 -19 -333 -18 -351 2 -539 6 -546 14 -7 7 -66 574 -60 580 9
10 216 16 581 18 296 2 372 -1 372 -11z m-9000 -635 c8 0 73 2 144 4 72 3 141
2 154 -1 14 -3 52 -35 85 -71 33 -35 63 -64 66 -64 4 0 12 12 17 28 8 22 7 32
-8 54 -25 37 -17 47 32 41 22 -3 53 0 70 7 19 8 46 10 75 6 l45 -7 -3 -110
c-4 -89 -8 -112 -22 -122 -9 -7 -76 -35 -148 -61 -73 -26 -141 -52 -152 -56
-120 -50 -502 -190 -519 -190 -9 0 -26 5 -38 11 -16 9 -23 7 -35 -11 -30 -43
-88 -60 -210 -60 l-112 0 0 305 -1 306 273 -5 c149 -2 279 -4 287 -4z m1328
-8 c13 -4 100 -97 203 -218 100 -116 204 -238 233 -270 85 -99 84 -92 14 -100
-53 -6 -65 -5 -90 14 -23 17 -28 18 -28 5 0 -8 -11 -20 -25 -25 -13 -5 -221
-9 -476 -10 l-452 0 6 158 c3 86 11 171 17 188 9 25 8 44 -3 87 -10 36 -13 80
-9 123 l5 67 291 -6 c160 -4 301 -10 314 -13z m769 4 c15 -6 66 -12 113 -14
47 -1 104 -5 128 -9 28 -5 47 -3 57 5 9 7 28 15 43 18 42 7 589 13 658 6 l62
-5 -15 -30 c-10 -21 -13 -42 -8 -67 16 -81 15 -196 -2 -244 -16 -46 -16 -47
10 -87 22 -34 27 -52 27 -106 l0 -65 -60 0 c-52 0 -62 3 -75 24 -15 22 -20 23
-93 19 -42 -2 -84 -6 -92 -9 -17 -6 -600 228 -594 238 3 5 -5 8 -18 8 -13 0
-69 18 -124 41 l-101 40 -18 65 c-16 60 -16 66 -1 83 9 10 16 34 16 54 0 29 4
36 23 40 12 2 25 5 29 6 4 0 19 -4 35 -11z m1453 3 c69 1 289 2 490 3 l365 1
-1 -148 c0 -81 -5 -152 -10 -157 -19 -19 -488 -122 -559 -122 -71 -1 -136 -17
-165 -42 -24 -21 -315 -90 -383 -90 -24 0 -44 7 -58 20 -18 19 -20 39 -28 275
-7 189 -6 256 2 262 7 4 59 5 117 2 58 -3 161 -5 230 -4z m2339 -7 c36 -14 42
-14 70 0 53 28 230 14 256 -20 14 -19 15 -18 33 5 18 22 24 23 105 19 48 -2
88 -6 90 -9 2 -2 92 -132 201 -288 129 -185 193 -287 186 -291 -19 -11 -319
-21 -380 -12 -30 4 -93 7 -140 5 -372 -13 -544 -13 -552 -1 -4 7 -8 31 -8 53
0 22 -7 58 -15 80 -18 51 -18 143 -1 217 10 39 11 57 3 55 -16 -3 -21 32 -6
49 7 8 19 12 28 9 9 -4 4 7 -12 22 -29 31 -37 89 -15 111 17 17 110 15 157 -4z
m1249 10 c24 -5 29 -10 24 -26 -4 -18 -1 -18 37 7 l41 28 383 -6 c213 -3 407
-10 438 -17 47 -9 65 -8 103 5 38 13 54 14 82 5 20 -7 38 -9 41 -6 4 3 13 -4
22 -16 20 -29 26 -181 8 -196 -7 -5 -24 -12 -38 -16 -34 -7 -40 -25 -28 -71 6
-20 9 -38 7 -40 -12 -10 -1141 -176 -1162 -171 -17 4 -28 15 -32 33 -10 36 11
132 35 164 20 27 20 27 -4 49 -13 12 -26 38 -30 58 -4 20 -13 49 -21 64 -8 15
-14 56 -14 93 l0 65 39 0 c21 0 52 -3 69 -6z m-2396 -27 c20 -8 42 -25 48 -37
10 -19 18 -21 48 -17 29 5 105 -19 424 -135 213 -77 388 -144 388 -148 0 -5
-13 -19 -29 -33 -31 -26 -31 -37 0 -37 10 0 30 -5 44 -12 25 -11 26 -14 23
-87 l-3 -76 -81 -3 c-79 -3 -82 -2 -105 26 -13 16 -29 38 -35 48 -11 18 -14
16 -46 -19 -41 -44 -79 -57 -167 -57 -59 0 -68 3 -97 31 -31 30 -34 31 -71 19
-21 -7 -54 -21 -73 -32 -32 -17 -55 -18 -295 -16 l-260 3 -3 148 c-2 93 2 155
8 168 9 15 8 24 0 35 -7 7 -15 42 -17 77 -4 51 -1 71 16 105 11 22 21 49 21
58 0 15 12 16 113 12 68 -3 126 -11 149 -21z m3561 -314 c-7 -2 -19 -2 -25 0
-7 3 -2 5 12 5 14 0 19 -2 13 -5z m-6437 -313 c17 -6 46 -26 64 -45 19 -19 38
-35 44 -35 5 0 137 -96 293 -212 l283 -213 0 -41 0 -41 -94 -7 c-77 -6 -99 -4
-118 8 -16 10 -28 12 -38 6 -26 -16 -52 -11 -76 15 -32 35 -60 33 -67 -5 l-6
-30 -97 0 c-79 0 -101 3 -117 18 -14 12 -36 17 -78 17 -32 0 -59 -3 -59 -6 0
-4 -7 -10 -16 -13 -17 -7 -84 29 -84 45 0 5 -13 -5 -29 -23 l-29 -33 -148 0
-149 0 -3 295 c-1 162 0 301 3 308 4 10 54 12 247 7 134 -3 257 -10 274 -15z
m2241 9 c7 -7 30 -9 65 -4 106 14 518 8 535 -8 3 -3 -2 -27 -11 -53 l-16 -48
54 58 53 58 79 -3 c44 -1 103 2 131 6 51 8 53 7 63 -21 7 -17 9 -58 6 -99 -18
-221 -18 -223 -1 -259 15 -30 15 -40 3 -72 -7 -21 -22 -40 -36 -45 -14 -5 -25
-20 -28 -39 -4 -16 -11 -30 -16 -30 -16 0 -446 100 -472 110 -14 5 -56 15 -93
21 -118 20 -408 90 -411 99 -2 4 -16 6 -32 4 -27 -5 -29 -2 -36 32 -5 26 -2
47 9 68 8 17 18 48 22 68 5 32 2 41 -25 68 -16 17 -30 37 -30 44 0 17 29 43
55 49 39 9 121 7 132 -4z m1422 4 c50 -5 65 -10 68 -25 7 -23 16 -23 38 2 37
41 85 16 85 -44 0 -20 5 -26 23 -26 20 0 22 4 19 45 l-4 45 208 0 c115 1 250
2 299 3 l90 2 0 -155 0 -155 -37 -24 c-21 -13 -38 -30 -38 -38 0 -7 -12 -18
-27 -24 -24 -9 -945 -68 -1075 -69 -51 0 -49 -3 -64 101 -5 42 -3 50 25 81 37
43 39 64 7 97 -20 21 -25 40 -30 103 -6 68 -4 77 11 81 29 7 333 7 402 0z
m1421 -32 c19 -14 44 -34 55 -47 11 -12 34 -26 50 -32 35 -11 584 -367 603
-390 6 -9 12 -35 12 -59 l0 -43 -37 0 c-79 0 -107 25 -82 72 11 22 10 21 -17
-3 -58 -53 -123 -79 -197 -79 -59 0 -73 4 -99 25 -36 30 -70 32 -106 5 -23
-17 -45 -21 -137 -23 -80 -1 -119 2 -143 13 -28 13 -35 13 -55 0 -16 -11 -68
-15 -203 -18 l-181 -4 -6 47 c-11 75 -8 294 3 316 6 10 17 19 25 19 8 0 15 5
15 10 0 6 23 38 51 72 63 76 78 106 59 118 -7 4 -18 7 -24 5 -6 -2 -26 -6 -45
-9 -28 -5 -32 -4 -21 8 15 19 69 24 275 22 163 -1 172 -2 205 -25z m-6300
-132 c256 -39 472 -77 480 -83 8 -7 36 -21 63 -30 43 -16 55 -36 21 -36 -20 0
-18 -12 11 -54 46 -68 72 -130 79 -189 l6 -58 -257 6 c-232 6 -293 8 -293 10
0 0 -9 25 -20 55 -11 33 -19 46 -20 32 0 -12 -7 -38 -14 -57 l-15 -35 -72 0
c-60 0 -77 4 -95 20 l-21 21 -31 -26 c-30 -25 -32 -26 -184 -23 l-153 3 -32
50 c-30 46 -33 56 -33 130 0 44 3 117 6 161 7 81 7 82 38 91 28 8 31 13 34 51
3 35 6 42 20 38 9 -3 226 -37 482 -77z m7709 -9 c332 -43 609 -84 615 -90 17
-17 21 -297 5 -327 l-14 -26 -280 7 c-292 7 -320 8 -331 19 -3 3 -16 -1 -29
-9 -18 -12 -70 -14 -306 -12 l-284 3 -2 33 c-1 21 2 30 10 25 6 -4 1 10 -11
31 -20 33 -22 51 -22 173 0 96 5 154 16 195 9 32 19 58 23 58 3 0 278 -36 610
-80z m-5209 0 c272 -16 529 -31 570 -32 l75 -3 7 -40 c11 -68 10 -129 -3 -162
-12 -29 -11 -34 4 -45 13 -10 19 -33 24 -86 l6 -72 -110 0 c-88 0 -113 3 -124
16 -11 14 -13 14 -21 -1 -8 -14 -41 -15 -281 -13 -238 1 -273 4 -288 19 -14
14 -20 15 -49 3 -18 -8 -64 -17 -101 -20 -58 -6 -72 -4 -89 11 -19 17 -22 17
-53 1 -20 -11 -47 -16 -72 -14 l-40 3 -3 220 c-1 121 0 225 2 232 6 16 -50 17
546 -17z m-2170 -481 c36 -20 40 -21 136 -7 54 8 111 11 125 7 27 -7 481 -337
509 -369 8 -9 47 -38 87 -63 95 -61 113 -80 113 -121 l0 -34 -132 -7 c-73 -4
-221 -4 -328 -1 -332 11 -400 11 -555 2 -195 -11 -235 4 -208 75 8 21 8 32 -3
46 -17 22 -17 87 0 133 11 31 17 35 48 35 l35 0 -14 33 c-7 18 -27 54 -43 81
-44 71 -47 99 -15 159 l27 52 90 0 c73 0 97 -4 128 -21z m1101 10 c35 1 59 -3
59 -9 0 -16 56 -12 70 5 23 27 69 18 104 -20 36 -38 46 -37 46 7 0 17 4 27 10
23 6 -4 52 -6 103 -6 50 0 97 -5 103 -10 8 -7 14 -6 19 1 8 13 55 13 55 0 0
-5 -5 -21 -12 -35 -11 -24 -9 -29 12 -46 51 -38 110 -10 143 69 l13 32 55 -41
c30 -22 62 -45 72 -50 26 -15 47 6 47 46 0 42 9 45 125 45 75 0 94 -3 99 -16
8 -21 8 -233 0 -273 -4 -21 -20 -41 -48 -61 -38 -29 -39 -31 -18 -36 50 -14
11 -45 -55 -45 -26 1 -207 -2 -402 -5 -275 -5 -355 -4 -361 6 -5 9 -13 9 -28
1 -11 -6 -75 -12 -143 -13 l-124 -3 -18 55 c-25 78 -29 262 -5 286 14 15 15
21 3 54 -14 39 -11 55 8 43 5 -3 36 -5 68 -4z m4906 -81 c2 -72 -1 -96 -13
-109 -14 -15 -14 -23 -2 -56 7 -21 19 -43 26 -48 16 -13 32 -101 39 -217 l5
-88 -29 -1 c-15 -1 -32 0 -38 1 -11 3 -105 1 -298 -7 -89 -4 -128 -1 -162 10
-35 12 -52 13 -82 4 -37 -11 -408 -15 -419 -4 -3 2 -7 20 -10 38 -5 30 12 64
146 289 84 140 153 257 155 259 10 10 53 -11 63 -31 8 -17 11 -18 11 -7 1 24
25 31 116 35 154 7 227 13 232 17 2 3 61 5 131 6 l127 0 2 -91z m304 56 c24
-25 40 -34 57 -31 12 2 25 0 28 -4 10 -17 20 -9 37 27 20 41 32 38 42 -12 8
-43 22 -34 27 16 l3 35 149 3 c98 2 153 -1 162 -9 7 -6 18 -7 25 -3 6 3 117 7
245 8 l233 2 21 -28 c18 -24 20 -42 20 -153 0 -112 -2 -127 -20 -145 -24 -24
-37 -75 -21 -84 19 -12 12 -32 -20 -67 -26 -28 -29 -36 -20 -56 6 -12 21 -25
35 -29 41 -10 46 -54 6 -54 -10 0 -27 15 -39 35 -19 33 -24 35 -71 35 -28 0
-60 -5 -72 -11 -26 -14 -31 -8 -19 23 17 44 -32 65 -75 34 -10 -8 -29 -12 -42
-9 -12 3 -28 1 -35 -5 -6 -5 -40 -12 -75 -16 l-62 -7 -355 167 -355 168 21 22
c16 17 20 30 15 48 -3 15 -11 26 -16 26 -14 0 -63 88 -55 100 3 6 46 10 99 10
l92 0 35 -36z m-2594 -107 c7 -5 23 -7 35 -4 12 4 234 -16 492 -43 259 -28
479 -50 488 -50 13 0 18 -13 23 -55 8 -60 1 -77 -54 -133 -44 -44 -41 -56 17
-50 26 3 41 3 35 1 -10 -4 -9 -10 2 -26 8 -12 15 -43 15 -70 l0 -48 -47 7
c-27 3 -55 12 -63 19 -22 19 -77 24 -66 7 3 -5 -7 -10 -22 -10 -15 -1 -43 -4
-62 -8 -19 -3 -239 -8 -489 -11 -431 -5 -455 -4 -468 13 -9 12 -13 52 -13 125
l0 107 80 67 c44 37 80 70 80 75 0 4 -12 11 -27 15 -32 8 -63 33 -63 50 0 7
-10 20 -22 29 -22 15 -19 15 47 9 39 -3 76 -10 82 -16z m-4107 -5 c0 -4 -5
-13 -12 -20 -8 -8 -5 -14 16 -22 15 -5 32 -10 37 -10 5 0 18 -9 29 -20 19 -19
20 -33 20 -205 l0 -185 -152 -2 c-157 -2 -359 -2 -437 1 -24 0 -59 10 -78 21
-43 25 -64 25 -86 -1 -10 -11 -25 -18 -32 -15 -8 3 -17 1 -20 -4 -4 -6 -99
-10 -231 -10 l-224 0 0 81 c0 73 3 84 30 124 17 24 30 47 30 51 0 4 -12 20
-26 35 -22 23 -25 33 -20 63 4 20 8 36 9 37 3 1 1098 87 1125 88 12 0 22 -3
22 -7z m3830 -24 c0 -7 11 -21 25 -33 23 -18 26 -29 31 -115 4 -55 2 -111 -4
-132 -7 -27 -7 -48 1 -75 9 -28 9 -37 -1 -41 -7 -2 -12 -12 -12 -23 0 -11 -7
-20 -17 -21 -10 0 -277 -2 -595 -2 l-576 -1 1 80 c1 44 -5 101 -12 128 -13 44
-12 180 1 193 11 11 304 16 340 6 21 -6 40 -6 43 -2 9 15 79 21 356 34 380 18
419 18 419 4z m-4802 -481 c16 -9 40 -10 85 -4 97 13 235 20 262 13 16 -4 25
-16 30 -38 4 -18 11 -37 15 -43 4 -5 10 -45 14 -87 6 -66 4 -83 -13 -117 -17
-33 -18 -40 -6 -45 12 -4 15 -27 15 -113 l0 -108 -55 -29 c-53 -27 -56 -28
-132 -18 -48 7 -83 7 -94 1 -26 -14 -59 -11 -65 6 -8 21 -30 19 -53 -6 -17
-19 -28 -20 -147 -18 -71 1 -132 4 -136 6 -5 2 -1 17 7 33 14 27 14 30 -6 41
-36 19 -109 2 -151 -37 -34 -31 -44 -34 -98 -34 -41 0 -62 4 -66 13 -2 7 46
131 107 276 103 243 113 262 133 256 11 -4 37 -9 56 -12 19 -3 44 -12 54 -19
17 -12 24 -10 53 12 21 16 33 20 33 12 1 -10 4 -9 13 2 27 33 80 70 100 70 12
-1 32 -6 45 -13z m529 -3 c35 -14 47 -14 75 -4 21 9 111 15 256 18 l222 4 55
-26 c65 -30 65 -30 65 -11 0 23 40 18 49 -7 7 -19 8 -19 14 -4 17 43 91 52
315 39 l112 -6 0 -27 c0 -23 -22 -45 -132 -137 -234 -192 -392 -319 -423 -338
-16 -10 -47 -34 -67 -53 -26 -24 -43 -33 -57 -29 -12 3 -21 1 -21 -5 0 -16
-219 -6 -229 11 -11 16 -73 8 -109 -15 -16 -11 -46 -14 -110 -12 l-87 3 -3
167 c-2 162 -2 167 19 173 l21 7 -21 22 c-19 20 -21 35 -21 134 0 126 -1 125
77 96z m3674 -22 c12 -20 31 -45 41 -55 25 -25 24 -100 -3 -143 -12 -20 -18
-42 -14 -53 3 -11 2 -28 -3 -38 -6 -10 -12 -44 -15 -75 -4 -48 -1 -61 15 -80
17 -20 18 -23 4 -26 -9 -2 -16 -12 -16 -23 0 -17 -3 -18 -21 -8 -15 8 -28 8
-45 1 -17 -9 -51 -5 -141 14 -65 14 -136 30 -158 36 -22 6 -52 12 -66 14 -14
1 -57 9 -95 18 -58 14 -369 78 -576 118 -56 11 -57 12 -63 50 -4 21 -2 44 3
51 5 7 13 27 17 45 3 18 13 39 21 47 13 13 13 18 -4 42 -11 16 -23 43 -26 61
-5 30 -4 32 25 32 16 0 44 -7 61 -16 25 -13 32 -13 39 -3 5 9 33 14 83 15 42
0 79 4 83 7 3 4 192 7 419 7 l413 0 22 -38z m2331 14 c63 -18 72 -18 120 -3
29 8 70 18 91 22 l37 6 0 -114 c0 -76 -4 -118 -12 -129 -7 -8 -134 -59 -283
-112 -148 -54 -292 -106 -320 -117 -144 -57 -348 -129 -368 -129 -12 0 -35 9
-52 20 -23 16 -44 20 -94 19 -46 -2 -65 1 -71 12 -12 20 -33 383 -27 445 4 42
12 59 33 79 l28 26 426 -3 c374 -4 433 -6 492 -22z m1024 18 c94 -3 177 -10
184 -14 10 -6 4 -59 -31 -249 -23 -133 -46 -246 -50 -253 -4 -6 -21 -11 -38
-11 -24 0 -37 -9 -57 -34 l-25 -33 -117 1 c-64 1 -127 6 -139 12 -19 8 -28 6
-47 -12 -22 -20 -32 -22 -107 -18 -46 2 -106 12 -133 22 -48 18 -49 18 -90 -3
-73 -39 -72 -40 -79 121 -12 243 -9 317 9 317 8 0 13 4 10 9 -4 5 -2 21 4 35
7 19 6 38 -4 66 -7 22 -12 41 -11 42 7 7 562 8 721 2z m-2048 -103 c2 -46 -2
-97 -7 -113 -7 -21 -6 -37 5 -63 17 -40 18 -108 3 -136 -7 -15 -7 -24 2 -35 9
-11 9 -21 -1 -43 -10 -26 -9 -32 9 -50 34 -34 27 -48 -26 -55 -27 -3 -296 -8
-599 -11 -471 -5 -552 -4 -563 8 -15 19 -26 132 -17 189 l7 45 207 78 c114 43
213 78 222 78 8 0 21 5 29 11 28 23 416 164 426 155 16 -16 147 -10 210 10 90
29 90 29 93 -68z m2646 53 c9 -3 16 -16 16 -27 0 -20 0 -20 14 -2 13 18 16 18
93 2 43 -9 89 -17 101 -17 12 0 25 -7 29 -16 4 -12 14 -14 42 -9 23 3 85 -5
171 -24 74 -16 178 -39 230 -50 52 -11 180 -37 283 -58 103 -20 193 -41 199
-44 13 -8 29 -224 21 -269 -8 -46 -34 -50 -357 -50 -166 0 -338 3 -384 7 -80
6 -82 7 -65 25 15 17 12 17 -32 -3 -67 -30 -159 -37 -184 -15 -15 13 -24 15
-38 7 -11 -5 -59 -9 -107 -9 l-88 2 4 265 c2 146 7 272 11 279 9 13 18 15 41
6z m-5756 -123 c315 -54 578 -103 585 -110 16 -16 16 -213 0 -232 -8 -10 -9
-20 -3 -29 22 -34 11 -47 -42 -55 -93 -13 -160 -10 -173 8 -16 22 -32 21 -79
-4 -38 -20 -48 -21 -335 -15 -163 3 -309 7 -326 7 -16 1 -78 -2 -137 -6 -133
-10 -143 -7 -125 38 8 18 12 47 9 65 -2 17 0 45 6 61 8 22 7 34 -5 50 -10 15
-13 33 -8 60 4 24 2 42 -4 46 -14 8 -14 100 -1 125 6 11 11 37 13 59 2 36 4
39 27 35 14 -3 283 -49 598 -103z m-2079 -487 c17 -14 31 -31 31 -38 0 -7 11
-23 24 -35 l25 -23 30 48 c17 26 31 51 31 56 0 4 21 8 48 8 299 4 369 3 442
-7 60 -8 89 -8 98 -1 17 15 25 4 14 -19 -5 -10 -15 -45 -21 -77 -6 -35 -20
-69 -32 -82 -17 -18 -20 -31 -16 -56 l5 -34 -456 -146 -457 -147 -22 21 c-13
12 -23 27 -23 35 0 21 -16 15 -31 -13 -28 -54 -65 -74 -134 -74 -35 0 -66 4
-70 9 -3 5 -8 92 -11 193 l-6 183 46 48 c49 51 51 67 10 67 -14 0 -22 4 -19
10 3 5 -1 23 -10 39 -24 47 -20 54 28 47 49 -7 57 -7 114 -3 23 2 45 6 49 10
4 4 69 7 145 7 133 0 138 -1 168 -26z m1346 11 c20 -9 45 -13 56 -10 37 12
142 17 364 18 310 0 283 5 290 -47 4 -27 2 -52 -5 -66 -8 -15 -9 -51 -5 -119
8 -104 2 -141 -21 -141 -21 0 -17 -10 12 -33 26 -20 27 -28 11 -94 -8 -33 -33
-76 -55 -97 -19 -17 -37 -18 -214 -14 l-193 3 -56 33 c-31 17 -74 38 -95 46
l-39 13 4 -40 c2 -28 0 -38 -8 -32 -7 4 -10 18 -7 33 3 15 2 34 -3 42 -8 12
-13 12 -29 -4 -19 -17 -24 -12 -187 191 -92 114 -173 214 -178 221 -8 10 -7
16 7 24 9 5 33 23 52 40 19 17 49 34 67 38 59 14 192 11 232 -5z m2792 -9 c25
-13 37 -15 52 -6 21 11 76 18 200 27 73 5 74 4 103 -28 28 -30 30 -37 24 -84
l-6 -51 45 -29 c43 -27 45 -30 45 -76 0 -26 -4 -51 -10 -54 -11 -7 -1063 -221
-1134 -230 l-49 -7 6 35 c3 21 0 42 -7 53 -7 11 -16 54 -19 96 -6 86 -3 91 60
113 42 15 56 35 23 35 -12 0 -39 14 -60 31 l-38 31 0 80 c0 72 1 79 18 75 10
-2 24 0 31 5 8 5 154 7 349 5 292 -3 339 -6 367 -21z m1265 17 c70 -3 132 -9
137 -13 8 -4 -3 -95 -35 -291 -25 -156 -48 -286 -50 -288 -3 -3 -59 -8 -127
-12 -98 -6 -128 -5 -151 7 -16 7 -43 14 -60 15 -23 0 -26 2 -13 8 14 5 7 10
-30 18 -63 16 -100 14 -107 -4 -5 -12 -10 -10 -26 8 -19 23 -19 23 -20 3 0
-11 -10 -31 -21 -43 -20 -21 -27 -23 -103 -17 -141 10 -131 7 -128 46 2 19 10
49 17 67 9 20 10 33 3 35 -11 4 -20 81 -20 166 0 38 -4 55 -14 59 -12 4 -15
23 -14 87 1 44 -1 98 -5 119 l-7 37 323 0 c178 0 381 -3 451 -7z m1119 2 c11
-4 19 -13 19 -20 0 -21 76 -57 103 -49 12 3 45 22 74 40 l51 34 171 0 171 0 0
-24 c0 -13 -6 -38 -14 -56 -11 -27 -11 -37 0 -58 8 -17 10 -32 3 -49 -5 -13
-9 -42 -9 -63 0 -21 -5 -51 -10 -66 -7 -17 -7 -38 -1 -58 26 -88 33 -141 21
-166 -35 -77 -30 -75 -141 -76 -102 -1 -115 3 -137 42 -7 13 -17 12 -68 -11
-109 -49 -104 -51 -502 227 -329 231 -347 245 -350 277 -3 31 -2 33 21 27 14
-3 46 1 72 9 33 10 54 11 67 4 13 -7 18 -6 18 4 0 7 4 17 10 23 11 11 400 19
431 9z m1508 -11 c17 -12 26 -13 34 -5 6 6 30 11 53 11 40 0 42 -1 46 -34 3
-29 -18 -72 -140 -288 -79 -139 -147 -257 -152 -262 -5 -5 -45 -11 -89 -13
-61 -3 -80 0 -84 11 -8 21 -128 32 -170 15 -17 -7 -37 -20 -43 -28 -8 -10 -22
-12 -52 -8 -22 4 -94 7 -159 8 l-118 0 -5 47 c-8 76 -5 505 3 535 l7 27 423 0
c373 0 425 -2 446 -16z m-5211 -170 c279 -92 508 -168 510 -169 2 -2 -8 -14
-22 -28 -14 -15 -26 -30 -26 -34 0 -5 -14 -17 -31 -27 -25 -15 -28 -20 -16
-29 28 -23 67 -92 67 -119 0 -28 0 -28 -67 -28 -38 0 -92 3 -120 6 -52 7 -53
7 -53 40 0 39 -16 45 -29 11 -13 -33 -37 -50 -62 -42 -17 6 -20 12 -15 37 l6
29 -26 -20 c-15 -12 -39 -21 -53 -21 -15 0 -37 -7 -50 -17 -21 -14 -25 -15
-35 -1 -8 11 -15 12 -28 5 -25 -16 -71 7 -63 32 8 27 -6 32 -69 25 -50 -6 -56
-9 -56 -30 0 -40 -42 -47 -278 -45 -63 1 -124 -2 -138 -5 -16 -4 -24 -2 -24 7
0 7 -7 20 -15 29 -17 18 -23 96 -26 320 -2 220 -2 220 23 220 13 0 30 5 38 10
8 5 46 10 83 10 62 0 118 -16 575 -166z m5370 146 c-7 -10 -14 -18 -15 -16 -6
6 9 36 18 36 5 0 4 -9 -3 -20z m-7834 -622 c10 -6 35 -8 56 -5 20 2 44 1 52
-4 9 -5 39 -3 73 4 51 10 58 10 69 -5 15 -21 64 -41 83 -34 7 3 38 -11 69 -32
30 -20 58 -37 62 -37 22 0 135 -70 139 -86 6 -20 19 -25 25 -10 4 11 427 -229
438 -249 7 -13 14 -82 11 -117 -1 -17 -53 -26 -83 -14 -14 5 -56 11 -92 13
-39 1 -72 8 -78 15 -21 25 -90 12 -126 -24 -17 -17 -31 -16 -88 3 -42 14 -49
14 -79 0 -24 -12 -65 -16 -153 -16 -67 0 -123 3 -125 8 -3 4 -92 4 -199 1
-106 -3 -209 -3 -229 -1 l-36 4 -6 144 c-4 90 -2 156 5 175 6 19 7 34 0 42
-11 14 -17 222 -6 238 8 13 189 2 218 -13z m2835 -4 c25 -21 30 -22 41 -9 7 8
21 15 31 15 10 0 21 5 24 10 8 13 165 13 198 1 14 -6 54 -6 93 -2 38 5 148 6
244 2 l175 -6 8 -105 c7 -79 6 -114 -5 -145 -8 -24 -12 -76 -11 -130 2 -65 -3
-105 -16 -145 -19 -56 -30 -64 -73 -45 -13 5 -18 3 -18 -8 0 -17 -29 -27 -80
-27 -30 0 -45 10 -100 65 -55 54 -70 64 -100 65 -20 0 -40 -4 -45 -8 -6 -5
-34 -18 -64 -30 -52 -21 -54 -21 -80 -4 -14 11 -33 21 -41 24 -8 3 -144 91
-301 196 -305 203 -299 197 -299 278 0 28 13 29 238 31 147 2 153 1 181 -23z
m1223 14 c16 -15 43 -15 81 1 31 12 383 14 426 2 31 -8 59 -56 60 -100 1 -19
8 -42 16 -51 13 -15 0 -36 -137 -224 -95 -131 -161 -212 -177 -218 -14 -5 -63
-9 -110 -10 -47 0 -183 -2 -302 -5 l-217 -4 -6 123 c-5 99 -3 341 5 465 2 28
14 30 201 32 105 1 150 -3 160 -11z m1744 -6 c18 -9 24 -9 35 5 12 14 32 15
147 10 74 -3 137 -8 140 -12 4 -4 9 -57 10 -119 3 -93 1 -114 -12 -125 -14
-11 -14 -15 -1 -28 9 -8 15 -33 15 -58 0 -39 -4 -46 -30 -60 -20 -11 -30 -23
-30 -39 0 -49 -10 -49 -292 -21 -145 14 -285 28 -313 30 -257 21 -402 39 -429
55 -17 9 -47 20 -67 24 -35 6 -36 8 -43 59 -3 28 -6 99 -6 157 l0 105 30 14
c17 7 37 10 45 7 8 -3 25 -1 37 4 34 15 737 7 764 -8z m939 3 c42 -7 618 -581
592 -591 -9 -3 -58 -4 -108 -3 -72 3 -94 8 -102 20 -10 15 -12 15 -26 -3 -15
-17 -29 -19 -146 -19 -72 1 -155 1 -185 2 -30 1 -84 0 -119 -2 -60 -3 -65 -2
-86 25 l-23 29 -16 -32 c-15 -27 -20 -30 -44 -24 -15 5 -47 7 -72 5 -25 -2
-89 -5 -142 -8 l-98 -5 0 50 c0 45 5 81 30 194 6 29 5 37 -6 37 -16 0 -18 9
-4 30 6 9 3 24 -8 42 -22 37 -8 59 44 74 51 14 56 42 14 78 -17 14 -38 26 -47
26 -26 0 -8 24 25 32 22 6 32 15 32 28 0 26 46 28 52 3 7 -25 52 -47 80 -40
13 4 43 19 66 34 40 27 45 28 154 25 62 -1 127 -5 143 -7z m1085 -22 l28 -31
29 30 c25 26 33 29 68 23 25 -4 53 -18 75 -39 19 -18 62 -52 95 -76 80 -59
518 -411 527 -425 4 -5 8 -19 8 -31 0 -20 -6 -22 -151 -28 -144 -7 -153 -7
-180 13 -35 26 -64 26 -134 0 -44 -16 -68 -19 -113 -14 -31 3 -76 7 -99 8 -24
1 -43 5 -43 10 0 5 -10 5 -22 1 -28 -9 -57 -11 -305 -20 l-191 -7 0 179 c0
170 1 181 24 221 29 50 30 75 4 132 -11 24 -20 54 -20 68 l0 25 186 -3 186 -4
28 -32z m-5460 -117 c0 -7 -7 -19 -15 -26 -21 -17 -11 -176 15 -240 10 -25 21
-77 24 -116 l7 -71 -88 -3 c-143 -6 -574 -5 -628 1 -27 3 -77 3 -110 -1 -45
-5 -68 -3 -94 9 -26 12 -35 13 -38 4 -5 -15 -59 -18 -67 -4 -4 5 -30 3 -64 -5
-91 -21 -144 -18 -164 11 -14 19 -16 29 -8 50 14 36 13 138 -2 153 -13 13 -18
146 -6 158 8 7 1067 91 1181 93 42 1 57 -3 57 -13z m673 -553 c4 -38 7 -164 7
-280 l0 -213 -27 -6 c-16 -3 -45 -12 -66 -20 -49 -18 -89 -18 -135 3 -20 9
-41 15 -46 14 -5 -1 -50 12 -100 28 -50 17 -242 76 -426 133 -184 56 -342 105
-350 109 -8 4 -28 11 -45 14 l-29 6 32 21 c37 23 35 28 -25 81 -42 38 -43 40
-43 102 0 42 4 65 13 68 6 3 287 5 623 6 l611 1 6 -67z m282 59 c6 -4 21 -20
33 -36 12 -16 22 -23 23 -15 0 8 4 6 8 -5 6 -17 9 -15 21 13 11 28 17 32 44
29 28 -3 31 -6 31 -37 0 -27 2 -30 10 -16 5 10 21 31 35 48 l24 30 96 -9 c52
-5 149 -9 215 -9 77 0 128 -4 142 -12 17 -10 22 -10 27 2 4 10 20 15 50 15 42
0 44 -1 51 -36 4 -23 2 -42 -7 -55 -7 -10 -98 -122 -203 -248 -181 -220 -192
-230 -225 -231 -20 0 -44 -6 -55 -14 -12 -8 -65 -16 -131 -20 -131 -8 -233 6
-260 35 -9 10 -26 19 -36 19 -24 0 -60 -19 -71 -36 -4 -8 -19 -14 -32 -14 -33
0 -35 18 -29 285 2 127 4 251 4 278 l-1 47 113 0 c62 0 118 -4 123 -8z m2280
-6 c16 -11 33 -12 80 -4 69 11 117 4 136 -18 11 -14 14 -13 21 6 8 22 12 22
101 18 l92 -5 300 -203 c165 -111 311 -212 323 -223 13 -12 30 -37 38 -56 8
-19 23 -41 34 -48 29 -20 27 -63 -2 -63 -13 0 -39 -3 -58 -6 -34 -6 -37 -4
-75 55 -41 62 -59 66 -57 14 0 -25 -6 -31 -50 -51 -67 -30 -167 -31 -193 -2
-12 13 -25 18 -38 14 -15 -5 -18 -3 -12 7 5 8 -3 2 -18 -13 -30 -33 -74 -37
-117 -12 -24 15 -32 15 -61 4 -23 -9 -110 -15 -266 -18 l-233 -4 0 304 c0 168
3 308 7 311 10 11 27 8 48 -7z m1855 4 c8 0 141 3 294 6 l279 7 -8 -154 c-5
-85 -7 -175 -6 -201 1 -26 -3 -65 -9 -88 -9 -35 -14 -40 -40 -40 -20 0 -30 -5
-30 -15 0 -12 -14 -14 -79 -10 -44 3 -90 9 -103 14 -12 5 -57 12 -98 15 -64 6
-720 95 -818 112 -32 5 -32 6 -25 47 3 23 17 59 30 79 26 43 30 76 8 84 -16 6
-45 92 -45 132 l0 24 318 -6 c174 -4 324 -6 332 -6z m-7680 -155 c300 -75 565
-143 588 -152 28 -10 47 -25 53 -40 15 -40 11 -161 -7 -194 -8 -17 -13 -37
-10 -44 7 -19 -5 -27 -20 -14 -8 7 -29 9 -51 5 -63 -11 -127 -7 -139 10 -9 12
-17 12 -40 3 -40 -16 -364 -26 -636 -19 l-87 2 15 29 c8 16 12 33 10 38 -7 10
-97 2 -110 -10 -5 -4 -18 -3 -29 2 -11 6 -33 8 -49 5 -30 -6 -90 -46 -69 -46
7 0 9 -4 6 -10 -3 -5 -17 -10 -30 -10 -20 0 -24 6 -27 43 -3 23 -2 51 2 62 5
13 0 29 -13 46 -18 25 -19 40 -15 176 4 137 6 151 28 183 41 59 52 70 69 70 9
0 261 -61 561 -135z m1961 88 c0 -10 2 -27 4 -38 11 -69 14 -157 6 -203 -4
-29 -4 -55 0 -58 14 -8 10 -61 -5 -73 -8 -7 -12 -22 -9 -34 6 -26 4 -107 -3
-118 -3 -5 -51 -8 -107 -7 -56 1 -110 -2 -120 -7 -9 -4 -136 -6 -282 -4 -204
3 -268 7 -274 17 -6 10 -10 10 -21 -3 -17 -21 -297 -22 -338 -1 -23 12 -31 12
-52 0 -14 -7 -35 -13 -47 -14 -22 0 -23 3 -23 83 0 70 3 88 20 107 25 28 25
31 1 62 -23 28 -16 44 22 53 20 5 25 11 18 19 -8 9 123 37 547 115 306 57 573
107 592 111 56 13 70 11 71 -7z m3258 -113 c239 -33 438 -60 442 -60 5 0 9 -7
9 -15 0 -9 11 -20 24 -25 35 -13 42 -30 18 -49 -17 -14 -20 -28 -21 -106 -1
-63 3 -99 14 -119 28 -54 24 -56 -88 -56 -92 0 -103 2 -115 20 -9 15 -17 18
-30 11 -9 -5 -31 -6 -48 -4 -20 3 -36 -1 -47 -11 -14 -15 -46 -16 -284 -11
-147 2 -306 5 -353 4 -89 0 -180 16 -192 35 -11 16 -10 98 3 155 6 29 7 63 2
83 -5 18 -6 53 -3 78 5 44 6 45 38 43 29 -1 34 3 39 28 5 25 10 29 39 29 23 0
38 6 46 21 10 15 20 19 43 15 17 -3 225 -33 464 -66z m-5053 -460 c19 -8 30
-7 40 1 11 9 116 10 417 4 221 -4 419 -7 440 -6 35 1 37 -1 26 -20 -10 -19 -7
-18 27 5 32 22 50 26 107 26 112 0 107 11 107 -214 0 -173 -2 -198 -20 -240
-16 -34 -18 -51 -11 -65 8 -14 7 -22 -5 -32 -8 -7 -13 -20 -11 -30 4 -16 1
-16 -51 2 -30 10 -66 19 -80 19 -14 0 -75 12 -135 26 -91 22 -108 29 -104 43
3 14 -1 17 -20 13 -13 -2 -26 -8 -28 -13 -6 -8 -12 -7 -50 6 -11 4 -29 8 -40
9 -36 4 -690 159 -698 166 -4 3 0 24 9 45 13 33 14 45 3 84 -7 25 -23 64 -36
87 -23 40 -29 74 -16 87 10 11 99 8 129 -3z m1804 3 c81 4 446 2 460 -3 8 -3
18 -9 22 -14 3 -6 25 -2 50 7 24 9 60 17 80 17 32 0 36 -3 42 -31 10 -51 6
-102 -9 -129 -19 -33 -18 -40 1 -40 10 0 14 -5 10 -15 -3 -9 -6 -67 -7 -130
-2 -120 -3 -124 -56 -178 -11 -11 -16 -30 -15 -46 3 -28 3 -28 -39 -21 -24 5
-48 15 -54 23 -9 12 -19 14 -49 7 -21 -5 -43 -13 -49 -19 -19 -19 -81 -12
-132 13 -44 23 -50 23 -71 9 -13 -8 -27 -12 -32 -9 -5 3 -16 -4 -25 -15 -23
-26 -49 -24 -78 7 -13 14 -33 30 -44 34 -25 11 -320 260 -308 261 4 0 0 3 -9
7 -9 4 -57 41 -107 82 -95 79 -100 92 -37 104 18 3 42 17 54 31 22 25 36 28
103 25 22 -1 41 5 49 15 11 14 29 15 114 11 56 -2 117 -4 136 -3z m848 -5 c8
-8 15 -8 27 2 21 17 214 7 247 -13 34 -21 116 -22 139 -1 16 14 26 16 56 8 33
-8 64 -42 269 -294 154 -190 227 -287 219 -292 -21 -12 -248 -12 -278 1 -16 6
-51 11 -78 11 -27 0 -49 5 -49 10 0 16 -32 12 -65 -8 -35 -22 -109 -34 -122
-21 -6 6 -20 6 -37 -1 -16 -6 -121 -10 -252 -10 l-224 0 0 220 0 221 29 17
c30 17 59 62 41 62 -5 0 -21 17 -34 37 -19 27 -23 40 -14 50 13 16 110 17 126
1z m2078 -13 c9 -14 22 -25 29 -25 6 0 20 -9 30 -20 10 -11 28 -20 39 -20 56
0 93 -20 111 -59 17 -39 17 -40 -4 -67 -27 -34 -27 -57 1 -95 20 -27 21 -33 9
-72 -7 -23 -12 -59 -12 -81 1 -23 -5 -46 -14 -56 -14 -15 -14 -18 0 -30 17
-14 20 -56 5 -65 -6 -4 -62 -1 -125 6 -83 9 -115 17 -115 26 0 9 -12 6 -37
-12 -28 -18 -51 -25 -86 -25 -48 0 -107 22 -107 40 0 6 -22 -1 -50 -15 -43
-22 -62 -25 -149 -25 -98 0 -101 1 -132 31 -22 21 -34 27 -43 20 -8 -7 -12 -5
-13 9 -1 11 -14 35 -28 55 l-27 35 63 112 c34 62 67 118 74 123 6 6 28 45 49
88 24 51 42 77 51 74 7 -3 27 10 45 28 37 38 42 39 297 43 121 2 123 2 139
-23z m1683 15 c24 -7 39 -6 48 2 12 10 103 8 326 -5 9 -1 17 -9 17 -20 0 -10
5 -28 11 -40 19 -35 84 -102 102 -103 9 -1 35 16 58 37 39 36 41 41 35 77 l-6
39 77 7 c118 10 136 8 129 -9 -4 -11 2 -15 24 -15 16 0 53 -9 81 -20 29 -12
66 -20 83 -18 l31 3 -1 -134 c-2 -118 -4 -136 -23 -162 -12 -15 -21 -42 -21
-59 0 -36 19 -35 -305 -19 -121 6 -267 12 -325 13 -58 2 -198 7 -312 11 l-208
8 0 26 c0 15 9 45 19 67 36 74 36 86 -3 128 -29 30 -36 46 -36 76 0 21 5 42
10 45 6 3 10 19 10 34 0 15 3 31 7 34 10 11 134 8 172 -3z m1906 -8 c19 -10
21 -29 32 -274 l12 -263 -22 -18 c-21 -19 -61 -19 -130 -2 -24 6 -26 5 -21
-11 6 -16 4 -16 -18 4 -31 28 -44 28 -104 -5 -47 -25 -56 -26 -199 -27 -82 0
-200 1 -260 3 -61 2 -121 1 -134 -4 -23 -7 -23 -7 -20 68 4 66 8 80 42 130 32
49 37 64 37 114 -1 59 -21 106 -35 82 -6 -8 -12 -4 -21 12 -14 26 -19 190 -6
203 11 13 824 1 847 -12z m-3095 -27 c18 11 270 -77 270 -95 0 -4 10 -6 23 -4
12 2 161 -45 332 -104 307 -106 309 -107 319 -139 6 -24 5 -41 -7 -65 -14 -29
-14 -36 -2 -55 8 -12 15 -43 15 -69 l0 -46 -62 6 c-216 20 -308 22 -418 9 -63
-7 -201 -13 -307 -13 -186 0 -193 1 -204 21 -10 20 -16 21 -76 15 -36 -4 -76
-14 -89 -23 -14 -9 -27 -13 -31 -10 -7 8 -5 383 3 447 l6 45 96 52 c85 46 98
50 109 37 6 -9 17 -13 23 -9z m-3852 -16 c-3 -8 -7 -3 -11 10 -4 17 -3 21 5
13 5 -5 8 -16 6 -23z m3582 -12 c0 -24 -3 -28 -10 -17 -13 20 -13 63 0 55 6
-3 10 -21 10 -38z m-5310 -577 c85 -1 247 0 360 3 l205 4 38 -30 38 -30 28 27
c24 23 35 26 99 26 70 0 72 -1 72 -25 0 -33 -45 -73 -97 -86 -31 -8 -42 -16
-40 -29 1 -12 -71 -73 -242 -204 -248 -189 -259 -196 -328 -187 -7 1 -23 -5
-35 -12 -13 -8 -54 -17 -93 -21 -101 -9 -194 -23 -240 -35 -22 -6 -79 -11
-126 -11 -70 0 -88 3 -93 16 -3 9 -6 129 -6 268 0 277 0 278 64 317 27 17 44
19 136 15 58 -2 175 -5 260 -6z m1220 -35 l0 -45 93 0 c106 0 136 11 156 58
l15 32 153 0 c116 0 153 -3 153 -12 0 -7 9 -28 20 -46 l21 -33 46 45 46 46
130 0 129 0 -6 -272 c-3 -150 -9 -288 -12 -306 l-6 -33 -57 3 c-52 3 -57 5
-71 35 -18 39 -64 47 -75 13 -3 -11 -13 -20 -21 -20 -18 0 -994 297 -1014 308
-21 13 -32 93 -24 190 l6 82 159 0 159 0 0 -45z m1593 26 c10 -7 17 -23 17
-35 0 -15 3 -17 9 -7 6 10 13 10 29 2 31 -16 72 -70 79 -102 7 -36 28 -56 37
-34 6 17 32 20 41 5 3 -5 0 -19 -7 -30 -11 -18 -10 -23 6 -36 11 -8 27 -12 35
-9 23 6 196 -331 174 -339 -27 -11 -139 -6 -151 6 -9 9 -16 8 -30 -5 -17 -15
-59 -17 -431 -17 l-413 0 6 73 c4 39 6 114 6 164 -2 90 -1 93 27 117 l28 25
-27 50 c-20 37 -26 58 -22 81 4 16 1 43 -6 59 -6 17 -9 35 -5 41 11 18 576 10
598 -9z m1047 5 c30 -8 59 -12 65 -8 24 15 446 18 471 4 15 -10 -116 -570
-136 -582 -20 -13 -177 -13 -185 0 -10 16 -42 12 -49 -6 -6 -14 -18 -15 -99
-9 -50 4 -162 9 -247 10 -85 2 -161 3 -167 4 -7 1 -13 14 -13 30 0 17 -4 33
-10 36 -13 8 -13 66 0 99 5 14 11 113 13 219 2 107 7 199 11 205 11 18 277 16
346 -2z m1406 -1 c10 -8 27 -15 36 -15 10 0 38 -10 63 -22 l45 -22 22 21 c33
31 107 47 181 38 92 -10 174 -11 245 -1 l62 8 -1 -49 c-1 -26 -8 -60 -15 -75
-8 -15 -14 -48 -14 -73 0 -26 -4 -54 -9 -63 -5 -11 -2 -43 8 -87 11 -50 15
-97 11 -165 l-5 -95 -88 -3 c-54 -2 -115 3 -160 13 -39 9 -83 19 -97 22 -14 3
-44 14 -67 25 -35 16 -48 17 -82 8 -24 -6 -41 -17 -41 -25 0 -8 -5 -15 -10
-15 -36 0 -194 134 -185 158 2 6 -1 12 -7 12 -19 0 -388 373 -388 392 0 15 9
18 50 18 34 0 50 -4 50 -13 0 -12 79 -57 100 -57 5 0 16 15 24 34 17 40 26 42
162 45 66 1 95 -3 110 -14z m2248 0 c40 -14 49 -14 93 1 41 14 83 16 272 12
155 -3 226 -8 229 -16 2 -8 11 -8 30 -1 14 6 37 8 49 4 l23 -5 -29 -59 c-17
-32 -37 -61 -46 -65 -9 -3 -13 -11 -9 -18 4 -6 -40 -104 -102 -225 -104 -202
-111 -213 -142 -219 -23 -5 -38 -2 -51 10 -16 15 -19 15 -24 1 -10 -23 -30
-18 -24 6 5 20 5 20 -13 4 -18 -17 -72 -18 -69 -1 2 22 -28 22 -85 -1 -36 -14
-79 -23 -106 -23 -25 1 -107 1 -182 1 l-138 0 -7 27 c-5 15 -8 108 -8 207 l1
180 31 65 c17 36 37 80 45 98 l13 32 102 0 c65 0 119 -6 147 -15z m-448 -40
c-9 -9 -16 -23 -16 -30 0 -8 -13 -24 -30 -36 -29 -22 -29 -23 -10 -36 11 -8
20 -22 20 -32 0 -26 29 -58 70 -79 33 -16 35 -20 38 -74 2 -41 -2 -65 -14 -83
-15 -23 -15 -27 0 -50 10 -15 16 -46 16 -84 l0 -60 -562 0 c-310 -1 -568 3
-574 7 -6 4 -17 24 -23 44 -7 21 -20 42 -28 47 -13 7 -15 22 -11 80 3 40 10
77 15 82 5 5 215 78 466 162 454 151 458 152 558 155 94 3 100 2 85 -13z
m-6160 -600 c15 -10 30 -12 51 -6 20 6 43 4 72 -6 37 -13 51 -12 119 2 42 9
144 19 225 22 l149 6 -6 -184 c-4 -101 -6 -204 -6 -229 1 -25 2 -81 3 -125 l2
-80 -159 -3 c-145 -2 -161 -1 -193 18 -22 13 -40 17 -47 12 -16 -13 -99 -32
-137 -32 -48 0 -139 32 -150 52 -6 10 -14 16 -20 13 -5 -4 -9 1 -9 9 0 24 -10
20 -53 -21 l-38 -38 -23 26 -23 27 -43 -19 c-24 -11 -45 -17 -48 -14 -7 6 66
556 74 565 3 3 51 8 107 11 56 3 109 6 117 7 9 1 25 -5 36 -13z m1861 3 c40
-1 41 -1 29 -22 -11 -16 -11 -38 -3 -99 9 -71 9 -79 -8 -91 -17 -12 -18 -18
-6 -55 9 -33 9 -49 0 -75 -10 -27 -9 -40 5 -77 12 -31 16 -67 14 -114 l-3 -70
-82 -3 c-57 -2 -91 2 -110 12 -24 12 -32 12 -53 0 -36 -19 -68 -17 -108 8 -24
14 -48 21 -75 19 -23 -1 -49 5 -64 14 -23 15 -26 15 -59 -14 -39 -34 -58 -37
-124 -17 l-45 13 -158 259 -157 258 35 19 c20 10 59 23 88 28 48 10 61 8 140
-19 75 -25 85 -27 71 -11 -11 12 -13 19 -5 19 20 0 71 -30 71 -41 0 -6 16 6
35 27 l35 37 77 -7 c43 -4 98 -14 122 -22 48 -16 70 -13 96 16 15 17 27 18
109 14 50 -3 110 -6 133 -6z m353 2 c41 4 78 5 215 3 55 0 215 1 355 4 292 5
320 2 320 -30 0 -12 9 -33 20 -47 19 -25 19 -25 -3 -42 -20 -15 -20 -20 -9
-39 18 -28 3 -39 -56 -39 l-44 0 20 -34 c36 -62 30 -162 -12 -171 -47 -9
-1056 -77 -1071 -72 -13 5 -15 32 -14 174 1 92 4 195 8 228 l6 60 84 2 c46 2
87 5 90 9 3 3 17 2 31 -2 14 -4 41 -6 60 -4z m1406 -2 c17 -5 35 -18 40 -29 9
-20 11 -19 49 12 l40 31 209 -6 c115 -4 215 -10 221 -14 16 -9 -302 -579 -327
-585 -9 -3 -21 0 -26 5 -6 6 -17 5 -31 -3 -16 -10 -27 -11 -49 -3 -21 8 -35 8
-48 1 -12 -7 -115 -11 -279 -11 l-260 -1 3 50 c1 28 7 151 13 275 6 138 15
227 21 231 6 4 8 17 5 28 -5 21 -3 22 76 19 79 -3 82 -4 79 -26 -2 -23 -1 -22
29 8 31 30 33 31 118 29 47 -1 100 -6 117 -11z m1299 3 c55 -3 114 -2 132 3
23 6 42 4 73 -8 38 -15 44 -15 75 0 38 18 114 12 154 -13 18 -12 28 -13 45 -4
31 17 167 30 190 19 16 -9 18 -19 14 -75 -4 -60 -7 -68 -41 -99 -20 -19 -46
-34 -56 -34 -52 0 -91 -45 -91 -106 0 -17 31 -41 98 -74 61 -31 84 -62 63 -83
-7 -7 -129 1 -418 27 -224 21 -480 45 -568 52 -88 8 -166 16 -172 19 -21 7
-15 57 9 82 l22 23 -22 68 c-21 66 -30 190 -15 205 8 8 370 7 508 -2z m1909
-3 c32 -14 38 -44 34 -168 l-3 -94 -35 -24 c-47 -31 -49 -42 -6 -42 38 0 54
-14 38 -33 -15 -18 -25 -113 -15 -134 6 -10 8 -39 5 -66 l-4 -47 -216 2 -215
3 -25 67 c-26 70 -35 78 -101 78 l-34 0 6 -47 c3 -27 9 -56 12 -65 14 -35 -24
-19 -49 20 -22 35 -27 38 -67 37 -65 -3 -64 -2 -79 -40 -8 -19 -19 -36 -24
-37 -22 -3 -94 -8 -201 -14 -137 -7 -168 2 -163 48 3 30 7 33 57 48 51 15 52
16 34 33 -11 9 -31 17 -45 17 -30 0 -88 19 -88 29 0 8 555 294 577 297 9 2 28
12 43 22 15 11 64 39 111 63 l84 43 145 6 c80 4 157 7 172 8 15 1 38 -3 52
-10z m1274 -12 c34 -17 40 -34 20 -54 -16 -16 -49 -15 -74 3 -21 14 -21 14 -8
-23 7 -20 13 -45 14 -54 0 -10 24 -34 55 -54 61 -41 74 -67 58 -119 -6 -19 -7
-39 -2 -46 5 -8 9 -67 9 -131 l0 -118 -153 0 c-135 0 -161 3 -231 25 -43 14
-107 39 -142 56 -66 33 -100 33 -90 1 6 -17 -24 -61 -42 -62 -4 -1 -27 -5 -51
-9 -33 -7 -55 -5 -87 7 -35 13 -47 14 -66 3 -24 -12 -52 -6 -90 21 -14 10 -24
10 -50 -1 -18 -7 -48 -16 -67 -18 l-33 -5 41 63 c22 35 105 166 183 291 123
194 147 227 172 232 54 11 191 6 257 -10 64 -15 66 -15 100 6 31 19 44 21 139
17 72 -3 116 -10 138 -21z m-7848 -627 c70 -13 151 -11 168 3 10 8 30 8 77 -1
49 -10 75 -10 117 -1 35 7 149 10 338 8 l285 -3 -2 -74 c-1 -47 -7 -80 -16
-88 -7 -8 -186 -109 -398 -226 l-384 -212 -175 -1 c-108 -2 -184 2 -197 8 -18
9 -27 8 -41 -5 -10 -10 -24 -17 -31 -17 -20 0 -8 33 17 46 35 18 36 22 3 38
l-30 16 -1 260 0 260 107 -1 c60 0 133 -5 163 -10z m1504 4 c4 -4 25 -6 46 -4
22 1 55 -3 74 -10 28 -10 41 -10 62 0 25 11 30 10 50 -12 13 -14 42 -32 66
-40 24 -8 59 -20 78 -27 71 -25 78 -24 73 3 -7 34 34 89 62 85 33 -5 24 -72
-21 -147 -22 -37 -40 -58 -44 -51 -5 8 -9 7 -13 -4 -3 -8 -2 -16 3 -18 5 -2
-33 -73 -85 -158 l-93 -155 -39 3 c-21 2 -46 5 -55 8 -14 4 -18 -1 -18 -18 0
-56 -9 -59 -222 -65 -170 -5 -201 -4 -231 10 -44 21 -61 21 -92 1 -35 -23 -81
-11 -90 23 -9 36 6 442 17 449 4 3 8 32 8 65 0 47 3 59 16 59 9 0 18 -9 21
-20 5 -19 6 -19 35 5 29 25 32 25 207 25 98 0 181 -3 185 -7z m1516 -3 c14 0
123 2 243 6 l217 6 0 -70 c0 -38 -5 -94 -11 -123 -6 -30 -12 -92 -13 -139 -2
-47 -6 -96 -10 -109 -8 -23 -10 -23 -100 -17 -50 3 -113 6 -141 7 -67 0 -591
19 -685 24 -41 2 -112 4 -156 4 l-81 1 -6 46 c-5 47 9 343 17 351 16 16 139
21 401 17 165 -2 311 -5 325 -4z m1689 -42 c-1 -164 -16 -315 -34 -341 -12
-19 -18 -46 -18 -85 0 -37 -6 -71 -19 -96 -18 -36 -22 -38 -33 -23 -13 18 -59
15 -71 -4 -7 -12 -128 -11 -180 1 -23 5 -149 60 -280 123 -131 62 -310 147
-396 187 -87 41 -158 78 -158 82 0 5 20 23 45 40 25 18 45 37 45 44 0 7 -9 33
-20 59 -23 55 -24 61 -7 47 20 -17 79 -16 112 2 27 14 86 16 523 16 l492 0 -1
-52z m1369 22 c22 -30 44 -36 89 -24 13 4 20 11 16 20 -3 8 -1 14 3 14 5 0 52
5 104 10 76 7 107 6 154 -6 45 -12 66 -13 83 -5 32 15 86 14 102 -1 8 -7 11
-8 8 -3 -7 13 100 18 383 19 l225 1 -1 -73 c0 -40 -5 -76 -10 -81 -14 -14
-637 -363 -652 -365 -7 -1 -18 -8 -24 -14 -7 -7 -17 -12 -23 -12 -6 0 -28 -12
-50 -27 -40 -27 -43 -27 -264 -35 -176 -6 -227 -5 -233 5 -11 18 -10 116 4
178 6 30 11 68 10 84 -3 133 0 170 14 194 15 25 15 29 -5 62 -11 19 -21 46
-21 62 0 24 4 27 33 27 25 0 39 -7 55 -30z m-188 -25 c8 -17 28 -43 43 -58
l29 -28 -6 -152 c-3 -84 -6 -191 -6 -238 l0 -87 -161 -1 c-105 -1 -167 3 -175
10 -7 6 -30 15 -49 19 -29 7 -39 5 -54 -11 -16 -18 -36 -18 -407 -16 l-389 2
3 70 c5 90 19 205 26 212 14 15 361 104 364 94 5 -16 22 -13 22 3 0 8 8 17 18
20 176 51 296 79 300 68 2 -7 8 -9 13 -6 6 3 16 1 24 -6 9 -8 15 -8 20 0 17
28 101 67 215 101 69 21 132 36 140 35 8 0 22 -15 30 -31z m-6755 -131 c334
-12 502 -21 507 -28 4 -6 7 -43 7 -82 -1 -43 4 -80 12 -92 11 -17 11 -28 2
-52 -10 -26 -9 -31 8 -40 16 -9 19 -22 19 -77 l0 -66 -52 7 c-74 10 -258 13
-258 4 0 -5 -21 -8 -47 -7 -38 1 -43 3 -23 8 14 4 -29 5 -95 3 -157 -6 -706
-9 -767 -4 -47 4 -59 17 -37 39 17 17 19 141 3 147 -11 4 -14 31 -14 113 0
167 -8 157 124 149 61 -3 336 -13 611 -22z"/>
<path d="M2248 8113 c7 -3 16 -2 19 1 4 3 -2 6 -13 5 -11 0 -14 -3 -6 -6z"/>
<path d="M3608 1973 c7 -3 16 -2 19 1 4 3 -2 6 -13 5 -11 0 -14 -3 -6 -6z"/>
<path d="M3980 1600 c0 -5 5 -10 11 -10 5 0 7 5 4 10 -3 6 -8 10 -11 10 -2 0
-4 -4 -4 -10z"/>
</g>
</svg>
